<svg width="62" height="15" viewBox="0 0 62 15" fill="none" xmlns="http://www.w3.org/2000/svg">
<path d="M2.5858 3.65422C2.5858 4.04715 2.68779 4.38441 2.89175 4.66601C3.09572 4.94761 3.36549 5.19974 3.70105 5.4224C4.03661 5.63851 4.41823 5.83497 4.84591 6.01179C5.28017 6.1886 5.71771 6.37197 6.15855 6.56189C6.60596 6.74525 7.04351 6.94499 7.47119 7.1611C7.90544 7.37721 8.29035 7.63261 8.62592 7.92731C8.96148 8.222 9.23124 8.56909 9.43521 8.96857C9.63918 9.36149 9.74117 9.82973 9.74117 10.3733C9.74117 10.9627 9.62931 11.5357 9.4056 12.0923C9.1819 12.6424 8.85949 13.1336 8.4384 13.5658C8.02388 13.998 7.52054 14.3451 6.92837 14.6071C6.3362 14.869 5.66836 15 4.92486 15C4.32612 15 3.76685 14.9214 3.24706 14.7642C2.73384 14.6071 2.26998 14.3975 1.85546 14.1356C1.44094 13.8736 1.07577 13.5756 0.759949 13.2417C0.450706 12.9077 0.197389 12.5639 0 12.2102L1.7765 10.4813C1.88836 10.6843 2.05943 10.9103 2.28972 11.1591C2.52 11.4014 2.77661 11.6306 3.05954 11.8468C3.34904 12.0629 3.64841 12.2462 3.95766 12.3969C4.2669 12.5409 4.55311 12.613 4.8163 12.613C5.19792 12.613 5.53677 12.5508 5.83286 12.4263C6.12894 12.3019 6.37568 12.1349 6.57307 11.9253C6.77704 11.7092 6.92837 11.4637 7.02706 11.1886C7.13234 10.9136 7.18497 10.6287 7.18497 10.334C7.18497 10.0458 7.08299 9.79699 6.87902 9.58743C6.68163 9.37786 6.41844 9.18795 6.08946 9.01768C5.76048 8.84741 5.38544 8.68369 4.96434 8.52652C4.54325 8.36935 4.11228 8.19908 3.67144 8.01572C3.23719 7.83235 2.80951 7.62279 2.38841 7.38703C1.96731 7.14473 1.59227 6.85658 1.26329 6.52259C0.93431 6.18206 0.667834 5.78585 0.463865 5.33399C0.266476 4.87557 0.167781 4.33857 0.167781 3.72299C0.167781 3.1336 0.305953 2.60969 0.582299 2.15128C0.865223 1.69286 1.23697 1.30321 1.69755 0.982318C2.15812 0.661428 2.68779 0.419122 3.28653 0.255403C3.88528 0.0851343 4.50377 0 5.14199 0C5.57625 0 6.0138 0.0720367 6.45463 0.21611C6.90205 0.353635 7.32644 0.543549 7.72779 0.785855C8.12915 1.02161 8.49432 1.29993 8.8233 1.62083C9.15887 1.93517 9.42534 2.26916 9.62273 2.62279L7.73766 4.07662C7.61923 3.87361 7.45145 3.66732 7.23432 3.45776C7.02377 3.24165 6.78361 3.04846 6.51385 2.87819C6.25066 2.70138 5.97432 2.5573 5.68481 2.44597C5.39531 2.33464 5.11567 2.27898 4.84591 2.27898C4.06951 2.27898 3.49708 2.38376 3.12862 2.59332C2.76674 2.80288 2.5858 3.15652 2.5858 3.65422Z" fill="black"/>
<path d="M16.0181 14.7151H10.8465V0.314342H13.4916V12.3477H16.0181V14.7151Z" fill="black"/>
<path d="M22.3346 0.225933C22.8676 0.225933 23.4005 0.29797 23.9335 0.442043C24.4664 0.586117 24.9763 0.798952 25.4632 1.08055C25.9567 1.36215 26.414 1.71251 26.8351 2.13163C27.2562 2.5442 27.6214 3.01899 27.9306 3.55599C28.2398 4.09299 28.4833 4.69548 28.6609 5.36346C28.8386 6.02489 28.9274 6.74198 28.9274 7.51473C28.9274 8.30059 28.8386 9.0275 28.6609 9.69548C28.4833 10.3635 28.2398 10.9659 27.9306 11.5029C27.6214 12.0399 27.2562 12.5147 26.8351 12.9273C26.414 13.3399 25.9567 13.6837 25.4632 13.9587C24.9763 14.2338 24.4664 14.4434 23.9335 14.5874C23.4005 14.725 22.8676 14.7937 22.3346 14.7937C21.8017 14.7937 21.2654 14.725 20.7259 14.5874C20.1929 14.4434 19.6797 14.2338 19.1862 13.9587C18.6994 13.6837 18.2454 13.3399 17.8243 12.9273C17.4032 12.5147 17.038 12.0399 16.7287 11.5029C16.4195 10.9659 16.1761 10.3635 15.9984 9.69548C15.8208 9.0275 15.7319 8.30059 15.7319 7.51473C15.7319 6.73543 15.8208 6.01506 15.9984 5.35363C16.1761 4.69221 16.4195 4.09299 16.7287 3.55599C17.038 3.01899 17.4032 2.5442 17.8243 2.13163C18.2454 1.71251 18.6994 1.36215 19.1862 1.08055C19.6797 0.798952 20.1929 0.586117 20.7259 0.442043C21.2654 0.29797 21.8017 0.225933 22.3346 0.225933ZM22.3346 12.7701C22.8544 12.7636 23.3479 12.649 23.815 12.4263C24.2822 12.1971 24.6901 11.8631 25.0388 11.4244C25.3941 10.979 25.6738 10.4322 25.8777 9.78389C26.0883 9.12901 26.1936 8.37263 26.1936 7.51473C26.1936 6.65029 26.0883 5.89391 25.8777 5.24558C25.6738 4.5907 25.3941 4.04388 25.0388 3.60511C24.6901 3.16634 24.2822 2.83563 23.815 2.61297C23.3479 2.38376 22.8544 2.26588 22.3346 2.25933C21.8148 2.26588 21.3181 2.38376 20.8443 2.61297C20.3772 2.83563 19.9659 3.16634 19.6106 3.60511C19.2553 4.04388 18.9724 4.5907 18.7619 5.24558C18.5513 5.89391 18.446 6.65029 18.446 7.51473C18.446 8.37263 18.5513 9.12901 18.7619 9.78389C18.9724 10.4322 19.2553 10.979 19.6106 11.4244C19.9659 11.8631 20.3772 12.1971 20.8443 12.4263C21.3181 12.649 21.8148 12.7636 22.3346 12.7701Z" fill="black"/>
<path d="M36.0334 0.225933C36.5664 0.225933 37.0993 0.29797 37.6323 0.442043C38.1652 0.586117 38.6752 0.798952 39.1621 1.08055C39.6555 1.36215 40.1128 1.71251 40.5339 2.13163C40.955 2.5442 41.3202 3.01899 41.6294 3.55599C41.9387 4.09299 42.1821 4.69548 42.3598 5.36346C42.5374 6.02489 42.6262 6.74198 42.6262 7.51473C42.6262 8.30059 42.5374 9.0275 42.3598 9.69548C42.1821 10.3635 41.9387 10.9659 41.6294 11.5029C41.3202 12.0399 40.955 12.5147 40.5339 12.9273C40.1128 13.3399 39.6555 13.6837 39.1621 13.9587C38.6752 14.2338 38.1652 14.4434 37.6323 14.5874C37.0993 14.725 36.5664 14.7937 36.0334 14.7937C35.5005 14.7937 34.9642 14.725 34.4247 14.5874C33.8918 14.4434 33.3785 14.2338 32.8851 13.9587C32.3982 13.6837 31.9442 13.3399 31.5231 12.9273C31.102 12.5147 30.7368 12.0399 30.4276 11.5029C30.1183 10.9659 29.8749 10.3635 29.6972 9.69548C29.5196 9.0275 29.4308 8.30059 29.4308 7.51473C29.4308 6.73543 29.5196 6.01506 29.6972 5.35363C29.8749 4.69221 30.1183 4.09299 30.4276 3.55599C30.7368 3.01899 31.102 2.5442 31.5231 2.13163C31.9442 1.71251 32.3982 1.36215 32.8851 1.08055C33.3785 0.798952 33.8918 0.586117 34.4247 0.442043C34.9642 0.29797 35.5005 0.225933 36.0334 0.225933ZM36.0334 12.7701C36.5532 12.7636 37.0467 12.649 37.5138 12.4263C37.981 12.1971 38.3889 11.8631 38.7377 11.4244C39.093 10.979 39.3726 10.4322 39.5766 9.78389C39.7871 9.12901 39.8924 8.37263 39.8924 7.51473C39.8924 6.65029 39.7871 5.89391 39.5766 5.24558C39.3726 4.5907 39.093 4.04388 38.7377 3.60511C38.3889 3.16634 37.981 2.83563 37.5138 2.61297C37.0467 2.38376 36.5532 2.26588 36.0334 2.25933C35.5136 2.26588 35.0169 2.38376 34.5431 2.61297C34.076 2.83563 33.6648 3.16634 33.3095 3.60511C32.9542 4.04388 32.6712 4.5907 32.4607 5.24558C32.2501 5.89391 32.1449 6.65029 32.1449 7.51473C32.1449 8.37263 32.2501 9.12901 32.4607 9.78389C32.6712 10.4322 32.9542 10.979 33.3095 11.4244C33.6648 11.8631 34.076 12.1971 34.5431 12.4263C35.0169 12.649 35.5136 12.7636 36.0334 12.7701Z" fill="black"/>
<path d="M45.3798 3.65422C45.3798 4.04715 45.4818 4.38441 45.6858 4.66601C45.8897 4.94761 46.1595 5.19974 46.4951 5.4224C46.8306 5.63851 47.2122 5.83497 47.6399 6.01179C48.0742 6.1886 48.5117 6.37197 48.9526 6.56189C49.4 6.74525 49.8375 6.94499 50.2652 7.1611C50.6995 7.37721 51.0844 7.63261 51.4199 7.92731C51.7555 8.222 52.0253 8.56909 52.2292 8.96857C52.4332 9.36149 52.5352 9.82973 52.5352 10.3733C52.5352 10.9627 52.4233 11.5357 52.1996 12.0923C51.9759 12.6424 51.6535 13.1336 51.2324 13.5658C50.8179 13.998 50.3146 14.3451 49.7224 14.6071C49.1302 14.869 48.4624 15 47.7189 15C47.1201 15 46.5609 14.9214 46.0411 14.7642C45.5279 14.6071 45.064 14.3975 44.6495 14.1356C44.235 13.8736 43.8698 13.5756 43.554 13.2417C43.2447 12.9077 42.9914 12.5639 42.794 12.2102L44.5705 10.4813C44.6824 10.6843 44.8534 10.9103 45.0837 11.1591C45.314 11.4014 45.5706 11.6306 45.8536 11.8468C46.1431 12.0629 46.4424 12.2462 46.7517 12.3969C47.0609 12.5409 47.3471 12.613 47.6103 12.613C47.9919 12.613 48.3308 12.5508 48.6269 12.4263C48.923 12.3019 49.1697 12.1349 49.3671 11.9253C49.5711 11.7092 49.7224 11.4637 49.8211 11.1886C49.9264 10.9136 49.979 10.6287 49.979 10.334C49.979 10.0458 49.877 9.79699 49.673 9.58743C49.4756 9.37786 49.2125 9.18795 48.8835 9.01768C48.5545 8.84741 48.1795 8.68369 47.7584 8.52652C47.3373 8.36935 46.9063 8.19908 46.4655 8.01572C46.0312 7.83235 45.6035 7.62279 45.1824 7.38703C44.7613 7.14473 44.3863 6.85658 44.0573 6.52259C43.7283 6.18206 43.4618 5.78585 43.2579 5.33399C43.0605 4.87557 42.9618 4.33857 42.9618 3.72299C42.9618 3.1336 43.1 2.60969 43.3763 2.15128C43.6592 1.69286 44.031 1.30321 44.4916 0.982318C44.9521 0.661428 45.4818 0.419122 46.0805 0.255403C46.6793 0.0851343 47.2978 0 47.936 0C48.3703 0 48.8078 0.0720367 49.2486 0.21611C49.6961 0.353635 50.1205 0.543549 50.5218 0.785855C50.9232 1.02161 51.2883 1.29993 51.6173 1.62083C51.9529 1.93517 52.2194 2.26916 52.4167 2.62279L50.5317 4.07662C50.4132 3.87361 50.2455 3.66732 50.0283 3.45776C49.8178 3.24165 49.5776 3.04846 49.3079 2.87819C49.0447 2.70138 48.7683 2.5573 48.4788 2.44597C48.1893 2.33464 47.9097 2.27898 47.6399 2.27898C46.8635 2.27898 46.2911 2.38376 45.9226 2.59332C45.5608 2.80288 45.3798 3.15652 45.3798 3.65422Z" fill="black"/>
<path d="M62 0.304519V14.7053H59.2859V8.62475H56.2362V14.7053H53.5221V0.304519H56.2362V6.3556H59.2859V0.304519H62Z" fill="black"/>
</svg>
