<svg width="367" height="93" viewBox="0 0 367 93" fill="none" xmlns="http://www.w3.org/2000/svg">
<path d="M29.011 92.2596C16.5237 92.2596 6.68515 85.5182 0 74.8337L11.9828 65.294C15.893 72.0354 22.452 77.632 29.2633 77.632C35.8223 77.632 40.1109 73.1802 40.1109 67.4563C40.1109 62.2413 36.9575 58.807 31.5337 56.0086L20.1816 50.2848C12.2351 46.2145 3.65791 38.2012 3.65791 25.9903C3.65791 12.3803 14.1271 0.67821 29.3894 0.67821C42.2552 0.67821 51.5892 7.29242 58.5266 18.7401L46.5438 28.2798C42.3813 20.2665 35.6962 15.3058 29.3894 15.3058C22.3259 15.3058 19.0464 19.8849 19.0464 24.9727C19.0464 29.2974 21.1907 33.1133 27.2451 36.166L39.3541 42.2714C47.9313 46.5961 55.4994 54.2279 55.4994 66.8203C55.4994 81.1935 45.0302 92.2596 29.011 92.2596Z" fill="url(#paint0_radial_619_7)"/>
<path d="M91.9109 91.0498H59.6382V0H76.1441V76.0818H91.9109V91.0498Z" fill="url(#paint1_radial_619_7)"/>
<path d="M126.975 92.2596C103.983 92.2596 83.4363 74.1977 83.4363 46.4689C83.4363 18.9945 103.983 0.67821 126.975 0.67821C149.845 0.67821 170.514 18.9945 170.514 46.4689C170.514 74.1977 149.845 92.2596 126.975 92.2596ZM98.4792 46.4689C98.4792 65.5484 111.81 77.3777 126.975 77.3777C142.018 77.3777 155.471 65.5484 155.471 46.4689C155.471 27.6438 142.018 15.5602 126.975 15.5602C111.81 15.5602 98.4792 27.6438 98.4792 46.4689Z" fill="url(#paint2_radial_619_7)"/>
<path d="M215.298 92.2596C192.306 92.2596 171.76 74.1977 171.76 46.4689C171.76 18.9945 192.306 0.67821 215.298 0.67821C238.169 0.67821 258.837 18.9945 258.837 46.4689C258.837 74.1977 238.169 92.2596 215.298 92.2596ZM186.803 46.4689C186.803 65.5484 200.133 77.3777 215.298 77.3777C230.341 77.3777 243.794 65.5484 243.794 46.4689C243.794 27.6438 230.341 15.5602 215.298 15.5602C200.133 15.5602 186.803 27.6438 186.803 46.4689Z" fill="url(#paint3_radial_619_7)"/>
<path d="M282.945 93C270.458 93 260.62 86.2586 253.934 75.5741L265.917 66.0344C269.827 72.7758 276.386 78.3724 283.198 78.3724C289.757 78.3724 294.045 73.9205 294.045 68.1967C294.045 62.9816 290.892 59.5473 285.468 56.749L274.116 51.0252C266.169 46.9549 257.592 38.9415 257.592 26.7307C257.592 13.1207 268.061 1.41858 283.324 1.41858C296.19 1.41858 305.524 8.03279 312.461 19.4805L300.478 29.0202C296.316 21.0068 289.631 16.0462 283.324 16.0462C276.26 16.0462 272.981 20.6252 272.981 25.7131C272.981 30.0378 275.125 33.8537 281.179 36.9064L293.288 43.0118C301.866 47.3365 309.434 54.9683 309.434 67.5607C309.434 81.9339 298.965 93 282.945 93Z" fill="url(#paint4_radial_619_7)"/>
<path d="M367 0.678265V91.728H350.063V53.2834H331.032V91.728H314.095V0.678265H331.032V38.9366H350.063V0.678265H367Z" fill="url(#paint5_radial_619_7)"/>
<defs>
<radialGradient id="paint0_radial_619_7" cx="0" cy="0" r="1" gradientUnits="userSpaceOnUse" gradientTransform="translate(183.5 46.5) rotate(0.110184) scale(260 103.272)">
<stop stop-color="#F3FFD9"/>
<stop offset="1" stop-color="#B5FE0B"/>
</radialGradient>
<radialGradient id="paint1_radial_619_7" cx="0" cy="0" r="1" gradientUnits="userSpaceOnUse" gradientTransform="translate(183.5 46.5) rotate(0.110184) scale(260 103.272)">
<stop stop-color="#F3FFD9"/>
<stop offset="1" stop-color="#B5FE0B"/>
</radialGradient>
<radialGradient id="paint2_radial_619_7" cx="0" cy="0" r="1" gradientUnits="userSpaceOnUse" gradientTransform="translate(183.5 46.5) rotate(0.110184) scale(260 103.272)">
<stop stop-color="#F3FFD9"/>
<stop offset="1" stop-color="#B5FE0B"/>
</radialGradient>
<radialGradient id="paint3_radial_619_7" cx="0" cy="0" r="1" gradientUnits="userSpaceOnUse" gradientTransform="translate(183.5 46.5) rotate(0.110184) scale(260 103.272)">
<stop stop-color="#F3FFD9"/>
<stop offset="1" stop-color="#B5FE0B"/>
</radialGradient>
<radialGradient id="paint4_radial_619_7" cx="0" cy="0" r="1" gradientUnits="userSpaceOnUse" gradientTransform="translate(183.5 46.5) rotate(0.110184) scale(260 103.272)">
<stop stop-color="#F3FFD9"/>
<stop offset="1" stop-color="#B5FE0B"/>
</radialGradient>
<radialGradient id="paint5_radial_619_7" cx="0" cy="0" r="1" gradientUnits="userSpaceOnUse" gradientTransform="translate(183.5 46.5) rotate(0.110184) scale(260 103.272)">
<stop stop-color="#F3FFD9"/>
<stop offset="1" stop-color="#B5FE0B"/>
</radialGradient>
</defs>
</svg>
